<mxfile host="app.diagrams.net" modified="2021-04-06T19:12:44.953Z" agent="5.0 (Windows NT 10.0; Win64; x64) AppleWebKit/537.36 (KHTML, like Gecko) Chrome/89.0.4389.114 Safari/537.36" etag="Te8BBly8V4cov7VsAwWR" version="14.5.7" type="github">
  <diagram id="e-mdGqeTSMNgSKVQZklV" name="Page-1">
    <mxGraphModel dx="1422" dy="922" grid="1" gridSize="10" guides="1" tooltips="1" connect="1" arrows="1" fold="1" page="1" pageScale="1" pageWidth="827" pageHeight="1169" math="0" shadow="0">
      <root>
        <mxCell id="0" />
        <mxCell id="1" parent="0" />
        <mxCell id="tH40R84688HO071A3csR-2" value="" style="rounded=0;whiteSpace=wrap;html=1;fillColor=#d5e8d4;strokeColor=#82b366;" vertex="1" parent="1">
          <mxGeometry x="90" y="80" width="420" height="170" as="geometry" />
        </mxCell>
        <mxCell id="tH40R84688HO071A3csR-3" value="&lt;h1&gt;Öffentlicher Bereich&lt;/h1&gt;&lt;p&gt;Alle Benutzer, die nicht eingeloggt sind.&lt;/p&gt;" style="text;html=1;strokeColor=none;fillColor=none;spacing=5;spacingTop=-20;whiteSpace=wrap;overflow=hidden;rounded=0;" vertex="1" parent="1">
          <mxGeometry x="90" y="80" width="320" height="70" as="geometry" />
        </mxCell>
        <mxCell id="tH40R84688HO071A3csR-4" value="&lt;b&gt;Home Screen&lt;/b&gt;&lt;br&gt;/" style="rounded=1;whiteSpace=wrap;html=1;" vertex="1" parent="1">
          <mxGeometry x="110" y="170" width="120" height="60" as="geometry" />
        </mxCell>
        <mxCell id="tH40R84688HO071A3csR-5" value="&lt;b&gt;Login Screen&lt;/b&gt;&lt;br&gt;/auth/login" style="rounded=1;whiteSpace=wrap;html=1;" vertex="1" parent="1">
          <mxGeometry x="240" y="170" width="120" height="60" as="geometry" />
        </mxCell>
        <mxCell id="tH40R84688HO071A3csR-6" value="&lt;b&gt;Logout Screen&lt;/b&gt;&lt;br&gt;/auth/logout" style="rounded=1;whiteSpace=wrap;html=1;" vertex="1" parent="1">
          <mxGeometry x="370" y="170" width="120" height="60" as="geometry" />
        </mxCell>
        <mxCell id="tH40R84688HO071A3csR-7" value="" style="rounded=0;whiteSpace=wrap;html=1;fillColor=#f8cecc;strokeColor=#b85450;" vertex="1" parent="1">
          <mxGeometry x="90" y="280" width="420" height="410" as="geometry" />
        </mxCell>
        <mxCell id="tH40R84688HO071A3csR-11" value="&lt;h1&gt;Geschützer Bereich&lt;/h1&gt;&lt;p&gt;Nur authentifizierte, eingeloggte Benutzer.&lt;/p&gt;" style="text;html=1;strokeColor=none;fillColor=none;spacing=5;spacingTop=-20;whiteSpace=wrap;overflow=hidden;rounded=0;" vertex="1" parent="1">
          <mxGeometry x="90" y="280" width="320" height="70" as="geometry" />
        </mxCell>
        <mxCell id="tH40R84688HO071A3csR-15" value="" style="group;fillColor=#ffe6cc;strokeColor=#d79b00;" vertex="1" connectable="0" parent="1">
          <mxGeometry x="100" y="370" width="190" height="300" as="geometry" />
        </mxCell>
        <mxCell id="tH40R84688HO071A3csR-8" value="" style="rounded=0;whiteSpace=wrap;html=1;fillColor=#ffe6cc;strokeColor=#d79b00;" vertex="1" parent="tH40R84688HO071A3csR-15">
          <mxGeometry width="190" height="300" as="geometry" />
        </mxCell>
        <mxCell id="tH40R84688HO071A3csR-10" value="&lt;b&gt;Ämtli&lt;/b&gt;&lt;br&gt;/app/parent&lt;br&gt;/app/parent/chores" style="rounded=1;whiteSpace=wrap;html=1;" vertex="1" parent="tH40R84688HO071A3csR-15">
          <mxGeometry x="35" y="70" width="120" height="60" as="geometry" />
        </mxCell>
        <mxCell id="tH40R84688HO071A3csR-12" value="&lt;b&gt;Belohnungen&lt;/b&gt;&lt;br&gt;/app/parent/rewards" style="rounded=1;whiteSpace=wrap;html=1;" vertex="1" parent="tH40R84688HO071A3csR-15">
          <mxGeometry x="35" y="145" width="120" height="60" as="geometry" />
        </mxCell>
        <mxCell id="tH40R84688HO071A3csR-13" value="&lt;b&gt;Profil&lt;/b&gt;&lt;br&gt;/app/parent/profile&lt;br&gt;/app/parent/profile/{id}" style="rounded=1;whiteSpace=wrap;html=1;" vertex="1" parent="tH40R84688HO071A3csR-15">
          <mxGeometry x="35" y="220" width="120" height="60" as="geometry" />
        </mxCell>
        <mxCell id="tH40R84688HO071A3csR-14" value="&lt;h1&gt;Eltern-Bereich&lt;/h1&gt;&lt;p&gt;&lt;br&gt;&lt;/p&gt;" style="text;html=1;strokeColor=none;fillColor=none;spacing=5;spacingTop=-20;whiteSpace=wrap;overflow=hidden;rounded=0;" vertex="1" parent="tH40R84688HO071A3csR-15">
          <mxGeometry width="190" height="70" as="geometry" />
        </mxCell>
        <mxCell id="tH40R84688HO071A3csR-16" value="" style="group" vertex="1" connectable="0" parent="1">
          <mxGeometry x="310" y="370" width="190" height="300" as="geometry" />
        </mxCell>
        <mxCell id="tH40R84688HO071A3csR-17" value="" style="rounded=0;whiteSpace=wrap;html=1;fillColor=#e1d5e7;strokeColor=#9673a6;" vertex="1" parent="tH40R84688HO071A3csR-16">
          <mxGeometry width="190" height="300" as="geometry" />
        </mxCell>
        <mxCell id="tH40R84688HO071A3csR-18" value="&lt;b&gt;Ämtli&lt;/b&gt;&lt;br&gt;/app/child&lt;br&gt;/app/child/chores" style="rounded=1;whiteSpace=wrap;html=1;" vertex="1" parent="tH40R84688HO071A3csR-16">
          <mxGeometry x="35" y="70" width="120" height="60" as="geometry" />
        </mxCell>
        <mxCell id="tH40R84688HO071A3csR-19" value="&lt;b&gt;Belohnungen&lt;/b&gt;&lt;br&gt;/app/child/rewards" style="rounded=1;whiteSpace=wrap;html=1;" vertex="1" parent="tH40R84688HO071A3csR-16">
          <mxGeometry x="35" y="145" width="120" height="60" as="geometry" />
        </mxCell>
        <mxCell id="tH40R84688HO071A3csR-20" value="&lt;b&gt;Profil&lt;/b&gt;&lt;br&gt;/app/child/profile&lt;br&gt;/app/child/profile/{id}" style="rounded=1;whiteSpace=wrap;html=1;" vertex="1" parent="tH40R84688HO071A3csR-16">
          <mxGeometry x="35" y="220" width="120" height="60" as="geometry" />
        </mxCell>
        <mxCell id="tH40R84688HO071A3csR-21" value="&lt;h1&gt;Kinder-Bereich&lt;/h1&gt;&lt;p&gt;&lt;br&gt;&lt;/p&gt;" style="text;html=1;strokeColor=none;fillColor=none;spacing=5;spacingTop=-20;whiteSpace=wrap;overflow=hidden;rounded=0;" vertex="1" parent="tH40R84688HO071A3csR-16">
          <mxGeometry width="190" height="70" as="geometry" />
        </mxCell>
      </root>
    </mxGraphModel>
  </diagram>
</mxfile>
